<?xml version="1.0" encoding="UTF-8"?><svg id="Layer_1" xmlns="http://www.w3.org/2000/svg" viewBox="0 0 986.59 236.39"><defs><style>.cls-1{fill:#fff;stroke-width:0px;}</style></defs><rect class="cls-1" x="669.79" y="13.5" width="31.68" height="121.9"/><rect class="cls-1" x="669.79" y="151.39" width="31.68" height="66.13"/><path class="cls-1" d="m824.85,73.81v141.54h-31.68V73.81h31.68Z"/><path class="cls-1" d="m862.86,91.98c11.53-13.56,27.39-20.35,47.59-20.35s36.06,6.78,47.59,20.35c11.53,13.27,17.29,30.47,17.29,51.59v2.76c0,21.32-5.79,38.63-17.36,51.95-11.58,13.32-27.46,19.98-47.67,19.98s-35.97-6.73-47.3-20.2c-11.53-13.27-17.29-30.52-17.29-51.73l-.14-2.62c0-20.93,5.76-38.17,17.29-51.73Zm14.53,54.63c0,13.95,2.71,25.21,8.14,33.79,5.42,8.57,13.75,12.86,25,12.86s19.57-4.31,24.99-12.93c5.62-8.62,8.43-19.86,8.43-33.72v-2.76c0-13.56-2.81-24.65-8.43-33.28-5.42-8.81-13.76-13.22-24.99-13.22s-19.6,4.33-25.07,13c-5.47,8.67-8.21,19.79-8.21,33.35l.14,2.9Z"/><path class="cls-1" d="m824.85,10.02v30.52h-31.68V10.02h31.68Z"/><path class="cls-1" d="m33.41,135.41h15.69v-46.63h33.71v-12.79h-33.71v-20.63c0-9.89,2.25-17.48,6.75-22.82,4.51-5.32,11.02-7.99,19.55-7.99,5.23,0,9.97.53,14.24,1.6l2.03-12.93c-6.39-1.65-12.3-2.47-17.73-2.47-12.98,0-22.98,3.85-30.01,11.55-7.03,7.71-10.53,18.72-10.53,33.06v20.63H9.87v12.79h23.54v46.63Z"/><rect class="cls-1" x="33.41" y="151.39" width="15.69" height="66.13"/><path class="cls-1" d="m764.49,128.14v30.52h-31.68v-30.52h31.68Z"/><path class="cls-1" d="m112.83,115.52c0-8.04,3.61-14.78,10.82-20.2,7.22-5.42,16.47-8.14,27.76-8.14s20.17,2.86,26.66,8.57c6.49,5.72,9.74,13.66,9.74,23.83v15.82h15.55v-15.53c0-14.63-4.65-25.96-13.95-34-9.3-8.04-21.8-12.06-37.49-12.06s-28.71,4.09-39.02,12.28c-10.31,8.19-15.23,17.7-14.75,28.55l.29.72,14.39.15Z"/><path class="cls-1" d="m203.36,151.39h-15.55v27.19c-3.97,8.42-10.29,15.23-18.96,20.42-8.67,5.18-18.07,7.77-28.19,7.77s-17.86-2.39-23.18-7.19c-5.33-4.8-7.99-11.12-7.99-18.97,0-9.1,4.29-16.63,12.86-22.6,4.23-2.94,9.14-5.14,14.7-6.62h-29.48c-9.06,7.46-13.63,16.92-13.63,28.42,0,12.84,3.83,22.87,11.48,30.08,7.65,7.22,18.31,10.83,31.97,10.83,10.56,0,20.2-2.35,28.92-7.05,8.72-4.7,15.84-10.92,21.36-18.67,0,6.88.97,14.59,2.91,23.11l16.42-.29c-2.42-9.11-3.64-18.55-3.64-28.34v-38.09Z"/><path class="cls-1" d="m243.19,135.41h28.79c-6.87-2.23-11.89-4.57-14.98-7.03-5.18-4.11-7.77-9.68-7.77-16.71s2.98-12.88,8.93-17.58c5.96-4.7,14.39-7.05,25.29-7.05s19.71,2.81,26.44,8.43c6.74,5.62,10.1,12.45,10.1,20.49h14.53l.29-.72c.38-12.21-4.1-22.18-13.44-29.94-9.35-7.75-21.7-11.62-37.05-11.62s-27.64,3.66-36.84,10.97c-9.2,7.32-13.8,16.45-13.8,27.39,0,9.79,3.29,17.5,9.52,23.38Z"/><path class="cls-1" d="m319.27,151.39h-39.87c1.26.3,2.5.6,3.82.89,13.75,3.1,23.47,7.02,29.14,11.77,5.66,4.75,8.5,10.68,8.5,17.8s-3.32,13.12-9.96,18.02c-6.63,4.89-15.53,7.34-26.66,7.34v.14c-11.24,0-20.52-2.42-27.83-7.26-7.32-4.84-11.26-12.16-11.84-21.94h-14.39l-.29.87c-.49,11.72,4.26,21.59,14.24,29.57,9.98,7.99,23.11,11.99,39.38,11.99s29.18-3.63,38.73-10.9c9.55-7.26,14.32-16.58,14.32-27.97s-4.07-20.34-12.21-26.88c-1.51-1.22-3.29-2.32-5.07-3.43Z"/><polygon class="cls-1" points="372.52 135.41 388.22 135.41 388.22 89.07 419.46 89.07 419.46 76.28 388.22 76.28 388.22 40.1 372.52 40.1 372.52 76.28 347.96 76.28 347.96 89.07 372.52 89.07 372.52 135.41"/><path class="cls-1" d="m406.67,206.77c-12.3,0-18.45-8.48-18.45-25.43v-29.95h-15.69v29.95c0,26.15,10.46,39.24,31.39,39.24,8.33,0,15.3-1.16,20.93-3.49l-2.48-11.62c-5.33.87-10.55,1.3-15.69,1.3Z"/><path class="cls-1" d="m449.91,135.41h31.97v-35.87h28.77v-23.54h-28.77v-16.42c0-15.21,6.88-22.82,20.64-22.82,3.28,0,7.55.44,12.78,1.31l3.2-24.56c-8.23-1.84-14.92-2.76-20.05-2.76-15.4,0-27.35,4.24-35.82,12.72-8.48,8.48-12.72,20.51-12.72,36.11v16.42h-21.51v23.54h21.51v35.87Z"/><rect class="cls-1" x="449.91" y="151.39" width="31.97" height="66.13"/><path class="cls-1" d="m551.19,135.41c1.08-8.91,3.58-16.56,7.56-22.87,5.47-8.67,13.82-13.01,25.07-13.01s19.57,4.41,24.99,13.22c4.07,6.25,6.61,13.82,7.74,22.65h31.52c-1.62-16.44-7.16-30.22-16.73-41.25-11.53-13.56-27.39-20.34-47.59-20.34s-36.06,6.78-47.59,20.34c-9.54,11.22-15.06,25-16.71,41.25h31.75Z"/><path class="cls-1" d="m617.11,151.39c-.34,12.62-3.04,23.06-8.29,31.11-5.43,8.62-13.76,12.93-24.99,12.93s-19.57-4.29-25-12.86c-5.07-8.01-7.67-18.47-8-31.19h-31.71c.51,19.88,6.2,36.19,17.19,48.84,11.34,13.47,27.11,20.2,47.3,20.2s36.09-6.66,47.67-19.98c11.04-12.7,16.75-29.08,17.26-49.06h-31.43Z"/></svg>